0
SECTION
2
HEADER
9
$INSUNITS
70
4
0
ENDSEC
0
SECTION
2
TABLES
0
TABLE
2
LTYPE
0
LTYPE
72
65
70
0
2
CONTINUOUS
3
______
73
0
40
0
0
LTYPE
72
65
70
0
2
DASHED
3
_ _ _ 
73
2
40
7.5
49
5
49
-2.5
0
LTYPE
72
65
70
0
2
DOTTED
3
. . . 
73
2
40
1.5
49
0.5
49
-1
0
ENDTAB
0
TABLE
2
LAYER
0
ENDTAB
0
ENDSEC
0
SECTION
2
ENTITIES
0
LINE
8
0
6
CONTINUOUS
10
41.25
20
-34.1
11
259.25
21
-34.1
0
LINE
8
0
6
CONTINUOUS
10
41.25
20
-89.7
11
41.25
21
-34.1
0
LINE
8
0
6
CONTINUOUS
10
41.25
20
-89.7
11
60.3
21
-89.7
0
LINE
8
0
6
CONTINUOUS
10
79.35
20
-80.65
11
77.8
21
-80.65
0
LINE
8
0
6
CONTINUOUS
10
77.8
20
-90.2
11
77.8
21
-80.65
0
LINE
8
0
6
CONTINUOUS
10
60.3
20
-90.2
11
77.8
21
-90.2
0
LINE
8
0
6
CONTINUOUS
10
60.3
20
-90.2
11
60.3
21
-89.7
0
LINE
8
0
6
CONTINUOUS
10
98.4
20
-80.65
11
96.85
21
-80.65
0
LINE
8
0
6
CONTINUOUS
10
96.85
20
-90.2
11
96.85
21
-80.65
0
LINE
8
0
6
CONTINUOUS
10
79.35
20
-90.2
11
79.35
21
-80.65
0
LINE
8
0
6
CONTINUOUS
10
79.35
20
-90.2
11
96.85
21
-90.2
0
LINE
8
0
6
CONTINUOUS
10
117.45
20
-80.65
11
115.9
21
-80.65
0
LINE
8
0
6
CONTINUOUS
10
115.9
20
-90.2
11
115.9
21
-80.65
0
LINE
8
0
6
CONTINUOUS
10
98.4
20
-90.2
11
98.4
21
-80.65
0
LINE
8
0
6
CONTINUOUS
10
98.4
20
-90.2
11
115.9
21
-90.2
0
LINE
8
0
6
CONTINUOUS
10
136.5
20
-80.65
11
134.95
21
-80.65
0
LINE
8
0
6
CONTINUOUS
10
134.95
20
-90.2
11
134.95
21
-80.65
0
LINE
8
0
6
CONTINUOUS
10
117.45
20
-90.2
11
117.45
21
-80.65
0
LINE
8
0
6
CONTINUOUS
10
117.45
20
-90.2
11
134.95
21
-90.2
0
LINE
8
0
6
CONTINUOUS
10
155.55
20
-80.65
11
154
21
-80.65
0
LINE
8
0
6
CONTINUOUS
10
154
20
-90.2
11
154
21
-80.65
0
LINE
8
0
6
CONTINUOUS
10
136.5
20
-90.2
11
136.5
21
-80.65
0
LINE
8
0
6
CONTINUOUS
10
136.5
20
-90.2
11
154
21
-90.2
0
LINE
8
0
6
CONTINUOUS
10
174.6
20
-80.65
11
173.05
21
-80.65
0
LINE
8
0
6
CONTINUOUS
10
173.05
20
-90.2
11
173.05
21
-80.65
0
LINE
8
0
6
CONTINUOUS
10
155.55
20
-90.2
11
155.55
21
-80.65
0
LINE
8
0
6
CONTINUOUS
10
155.55
20
-90.2
11
173.05
21
-90.2
0
LINE
8
0
6
CONTINUOUS
10
193.65
20
-80.65
11
192.1
21
-80.65
0
LINE
8
0
6
CONTINUOUS
10
192.1
20
-90.2
11
192.1
21
-80.65
0
LINE
8
0
6
CONTINUOUS
10
174.6
20
-90.2
11
174.6
21
-80.65
0
LINE
8
0
6
CONTINUOUS
10
174.6
20
-90.2
11
192.1
21
-90.2
0
LINE
8
0
6
CONTINUOUS
10
212.7
20
-80.65
11
211.15
21
-80.65
0
LINE
8
0
6
CONTINUOUS
10
211.15
20
-90.2
11
211.15
21
-80.65
0
LINE
8
0
6
CONTINUOUS
10
193.65
20
-90.2
11
193.65
21
-80.65
0
LINE
8
0
6
CONTINUOUS
10
193.65
20
-90.2
11
211.15
21
-90.2
0
LINE
8
0
6
CONTINUOUS
10
231.75
20
-80.65
11
230.2
21
-80.65
0
LINE
8
0
6
CONTINUOUS
10
230.2
20
-90.2
11
230.2
21
-80.65
0
LINE
8
0
6
CONTINUOUS
10
212.7
20
-90.2
11
212.7
21
-80.65
0
LINE
8
0
6
CONTINUOUS
10
212.7
20
-90.2
11
230.2
21
-90.2
0
LINE
8
0
6
CONTINUOUS
10
259.25
20
-43.15
11
259.25
21
-34.1
0
LINE
8
0
6
CONTINUOUS
10
250.8
20
-80.65
11
249.25
21
-80.65
0
LINE
8
0
6
CONTINUOUS
10
249.25
20
-90.2
11
249.25
21
-80.65
0
LINE
8
0
6
CONTINUOUS
10
231.75
20
-90.2
11
231.75
21
-80.65
0
LINE
8
0
6
CONTINUOUS
10
231.75
20
-90.2
11
249.25
21
-90.2
0
LINE
8
0
6
CONTINUOUS
10
268.3
20
-90.2
11
268.3
21
-43.15
0
LINE
8
0
6
CONTINUOUS
10
259.25
20
-43.15
11
268.3
21
-43.15
0
LINE
8
0
6
CONTINUOUS
10
250.8
20
-90.2
11
250.8
21
-80.65
0
LINE
8
0
6
CONTINUOUS
10
250.8
20
-90.2
11
268.3
21
-90.2
0
LINE
8
0
6
CONTINUOUS
10
41.25
20
-108.75
11
268.3
21
-108.75
0
LINE
8
0
6
CONTINUOUS
10
41.25
20
-91.25
11
268.3
21
-91.25
0
LINE
8
0
6
CONTINUOUS
10
41.25
20
-91.25
11
41.25
21
-108.75
0
LINE
8
0
6
CONTINUOUS
10
268.3
20
-108.75
11
268.3
21
-91.25
0
ENDSEC
0
EOF