0
SECTION
2
HEADER
9
$INSUNITS
70
4
0
ENDSEC
0
SECTION
2
TABLES
0
TABLE
2
LTYPE
0
LTYPE
72
65
70
0
2
CONTINUOUS
3
______
73
0
40
0
0
LTYPE
72
65
70
0
2
DASHED
3
_ _ _ 
73
2
40
7.5
49
5
49
-2.5
0
LTYPE
72
65
70
0
2
DOTTED
3
. . . 
73
2
40
1.5
49
0.5
49
-1
0
ENDTAB
0
TABLE
2
LAYER
0
ENDTAB
0
ENDSEC
0
SECTION
2
ENTITIES
0
LINE
8
0
6
CONTINUOUS
10
41.25
20
-33.6
11
259.25
21
-33.6
0
ARC
8
0
6
CONTINUOUS
10
259.25
20
-34.1
40
0.5
50
443.5092623
51
90
0
ARC
8
0
6
CONTINUOUS
10
268.3
20
-43.15
40
0.5
50
0
51
6.4907377
0
LINE
8
0
6
CONTINUOUS
10
268.8
20
-90.2
11
268.8
21
-43.15
0
ARC
8
0
6
CONTINUOUS
10
268.3
20
-90.2
40
0.5
50
270
51
0
0
LINE
8
0
6
CONTINUOUS
10
250.8
20
-90.7
11
268.3
21
-90.7
0
ARC
8
0
6
CONTINUOUS
10
250.8
20
-90.2
40
0.5
50
180
51
270
0
LINE
8
0
6
CONTINUOUS
10
250.3
20
-90.2
11
250.3
21
-81.15
0
LINE
8
0
6
CONTINUOUS
10
250.3
20
-81.15
11
249.75
21
-81.15
0
LINE
8
0
6
CONTINUOUS
10
249.75
20
-90.2
11
249.75
21
-81.15
0
ARC
8
0
6
CONTINUOUS
10
249.25
20
-90.2
40
0.5
50
270
51
0
0
LINE
8
0
6
CONTINUOUS
10
231.75
20
-90.7
11
249.25
21
-90.7
0
ARC
8
0
6
CONTINUOUS
10
231.75
20
-90.2
40
0.5
50
180
51
270
0
LINE
8
0
6
CONTINUOUS
10
231.25
20
-90.2
11
231.25
21
-81.15
0
LINE
8
0
6
CONTINUOUS
10
231.25
20
-81.15
11
230.7
21
-81.15
0
LINE
8
0
6
CONTINUOUS
10
230.7
20
-90.2
11
230.7
21
-81.15
0
ARC
8
0
6
CONTINUOUS
10
230.2
20
-90.2
40
0.5
50
270
51
0
0
LINE
8
0
6
CONTINUOUS
10
212.7
20
-90.7
11
230.2
21
-90.7
0
ARC
8
0
6
CONTINUOUS
10
212.7
20
-90.2
40
0.5
50
180
51
270
0
LINE
8
0
6
CONTINUOUS
10
212.2
20
-90.2
11
212.2
21
-81.15
0
LINE
8
0
6
CONTINUOUS
10
212.2
20
-81.15
11
211.65
21
-81.15
0
LINE
8
0
6
CONTINUOUS
10
211.65
20
-90.2
11
211.65
21
-81.15
0
ARC
8
0
6
CONTINUOUS
10
211.15
20
-90.2
40
0.5
50
270
51
0
0
LINE
8
0
6
CONTINUOUS
10
193.65
20
-90.7
11
211.15
21
-90.7
0
ARC
8
0
6
CONTINUOUS
10
193.65
20
-90.2
40
0.5
50
180
51
270
0
LINE
8
0
6
CONTINUOUS
10
193.15
20
-90.2
11
193.15
21
-81.15
0
LINE
8
0
6
CONTINUOUS
10
193.15
20
-81.15
11
192.6
21
-81.15
0
LINE
8
0
6
CONTINUOUS
10
192.6
20
-90.2
11
192.6
21
-81.15
0
ARC
8
0
6
CONTINUOUS
10
192.1
20
-90.2
40
0.5
50
270
51
0
0
LINE
8
0
6
CONTINUOUS
10
174.6
20
-90.7
11
192.1
21
-90.7
0
ARC
8
0
6
CONTINUOUS
10
174.6
20
-90.2
40
0.5
50
180
51
270
0
LINE
8
0
6
CONTINUOUS
10
174.1
20
-90.2
11
174.1
21
-81.15
0
LINE
8
0
6
CONTINUOUS
10
174.1
20
-81.15
11
173.55
21
-81.15
0
LINE
8
0
6
CONTINUOUS
10
173.55
20
-90.2
11
173.55
21
-81.15
0
ARC
8
0
6
CONTINUOUS
10
173.05
20
-90.2
40
0.5
50
270
51
0
0
LINE
8
0
6
CONTINUOUS
10
155.55
20
-90.7
11
173.05
21
-90.7
0
ARC
8
0
6
CONTINUOUS
10
155.55
20
-90.2
40
0.5
50
180
51
270
0
LINE
8
0
6
CONTINUOUS
10
155.05
20
-90.2
11
155.05
21
-81.15
0
LINE
8
0
6
CONTINUOUS
10
155.05
20
-81.15
11
154.5
21
-81.15
0
LINE
8
0
6
CONTINUOUS
10
154.5
20
-90.2
11
154.5
21
-81.15
0
ARC
8
0
6
CONTINUOUS
10
154
20
-90.2
40
0.5
50
270
51
0
0
LINE
8
0
6
CONTINUOUS
10
136.5
20
-90.7
11
154
21
-90.7
0
ARC
8
0
6
CONTINUOUS
10
136.5
20
-90.2
40
0.5
50
180
51
270
0
LINE
8
0
6
CONTINUOUS
10
136
20
-90.2
11
136
21
-81.15
0
LINE
8
0
6
CONTINUOUS
10
136
20
-81.15
11
135.45
21
-81.15
0
LINE
8
0
6
CONTINUOUS
10
135.45
20
-90.2
11
135.45
21
-81.15
0
ARC
8
0
6
CONTINUOUS
10
134.95
20
-90.2
40
0.5
50
270
51
0
0
LINE
8
0
6
CONTINUOUS
10
117.45
20
-90.7
11
134.95
21
-90.7
0
ARC
8
0
6
CONTINUOUS
10
117.45
20
-90.2
40
0.5
50
180
51
270
0
LINE
8
0
6
CONTINUOUS
10
116.95
20
-90.2
11
116.95
21
-81.15
0
LINE
8
0
6
CONTINUOUS
10
116.95
20
-81.15
11
116.4
21
-81.15
0
LINE
8
0
6
CONTINUOUS
10
116.4
20
-90.2
11
116.4
21
-81.15
0
ARC
8
0
6
CONTINUOUS
10
115.9
20
-90.2
40
0.5
50
270
51
0
0
LINE
8
0
6
CONTINUOUS
10
98.4
20
-90.7
11
115.9
21
-90.7
0
ARC
8
0
6
CONTINUOUS
10
98.4
20
-90.2
40
0.5
50
180
51
270
0
LINE
8
0
6
CONTINUOUS
10
97.9
20
-90.2
11
97.9
21
-81.15
0
LINE
8
0
6
CONTINUOUS
10
97.9
20
-81.15
11
97.35
21
-81.15
0
LINE
8
0
6
CONTINUOUS
10
97.35
20
-90.2
11
97.35
21
-81.15
0
ARC
8
0
6
CONTINUOUS
10
96.85
20
-90.2
40
0.5
50
270
51
0
0
LINE
8
0
6
CONTINUOUS
10
79.35
20
-90.7
11
96.85
21
-90.7
0
ARC
8
0
6
CONTINUOUS
10
79.35
20
-90.2
40
0.5
50
180
51
270
0
LINE
8
0
6
CONTINUOUS
10
78.85
20
-90.2
11
78.85
21
-81.15
0
LINE
8
0
6
CONTINUOUS
10
78.85
20
-81.15
11
78.3
21
-81.15
0
LINE
8
0
6
CONTINUOUS
10
78.3
20
-90.2
11
78.3
21
-81.15
0
ARC
8
0
6
CONTINUOUS
10
77.8
20
-90.2
40
0.5
50
270
51
0
0
LINE
8
0
6
CONTINUOUS
10
60.3
20
-90.7
11
77.8
21
-90.7
0
ARC
8
0
6
CONTINUOUS
10
60.3
20
-90.2
40
0.5
50
180
51
270
0
LINE
8
0
6
CONTINUOUS
10
41.25
20
-90.2
11
59.8
21
-90.2
0
ARC
8
0
6
CONTINUOUS
10
41.25
20
-89.7
40
0.5
50
180
51
270
0
LINE
8
0
6
CONTINUOUS
10
40.75
20
-89.7
11
40.75
21
-34.1
0
ARC
8
0
6
CONTINUOUS
10
41.25
20
-34.1
40
0.5
50
90
51
180
0
LINE
8
0
6
CONTINUOUS
10
41.25
20
-109.25
11
268.3
21
-109.25
0
ARC
8
0
6
CONTINUOUS
10
268.3
20
-108.75
40
0.5
50
270
51
360
0
LINE
8
0
6
CONTINUOUS
10
268.8
20
-108.75
11
268.8
21
-91.25
0
ARC
8
0
6
CONTINUOUS
10
268.3
20
-91.25
40
0.5
50
360
51
90
0
LINE
8
0
6
CONTINUOUS
10
41.25
20
-90.75
11
268.3
21
-90.75
0
ARC
8
0
6
CONTINUOUS
10
41.25
20
-91.25
40
0.5
50
90
51
180
0
LINE
8
0
6
CONTINUOUS
10
40.75
20
-91.25
11
40.75
21
-108.75
0
ARC
8
0
6
CONTINUOUS
10
41.25
20
-108.75
40
0.5
50
180
51
270
0
ARC
8
0
6
CONTINUOUS
10
259.55
20
-42.85
40
9.25
50
358.4916851
51
91.5083149
0
ENDSEC
0
EOF