0
SECTION
2
HEADER
9
$INSUNITS
70
4
0
ENDSEC
0
SECTION
2
TABLES
0
TABLE
2
LTYPE
0
LTYPE
72
65
70
0
2
CONTINUOUS
3
______
73
0
40
0
0
LTYPE
72
65
70
0
2
DASHED
3
_ _ _ 
73
2
40
7.5
49
5
49
-2.5
0
LTYPE
72
65
70
0
2
DOTTED
3
. . . 
73
2
40
1.5
49
0.5
49
-1
0
ENDTAB
0
TABLE
2
LAYER
0
ENDTAB
0
ENDSEC
0
SECTION
2
ENTITIES
0
LINE
8
0
6
CONTINUOUS
10
41
20
-33.85
11
59
21
-33.85
0
LINE
8
0
6
CONTINUOUS
10
59
20
-33.85
11
59
21
-51.85
0
LINE
8
0
6
CONTINUOUS
10
59
20
-51.85
11
41
21
-51.85
0
LINE
8
0
6
CONTINUOUS
10
41
20
-51.85
11
41
21
-33.85
0
LINE
8
0
6
CONTINUOUS
10
41
20
-52.9
11
59
21
-52.9
0
LINE
8
0
6
CONTINUOUS
10
59
20
-52.9
11
59
21
-70.9
0
LINE
8
0
6
CONTINUOUS
10
59
20
-70.9
11
41
21
-70.9
0
LINE
8
0
6
CONTINUOUS
10
41
20
-70.9
11
41
21
-52.9
0
LINE
8
0
6
CONTINUOUS
10
41
20
-71.95
11
59
21
-71.95
0
LINE
8
0
6
CONTINUOUS
10
59
20
-71.95
11
59
21
-89.95
0
LINE
8
0
6
CONTINUOUS
10
59
20
-89.95
11
41
21
-89.95
0
LINE
8
0
6
CONTINUOUS
10
41
20
-89.95
11
41
21
-71.95
0
LINE
8
0
6
CONTINUOUS
10
60.05
20
-33.85
11
78.05
21
-33.85
0
LINE
8
0
6
CONTINUOUS
10
78.05
20
-33.85
11
78.05
21
-51.85
0
LINE
8
0
6
CONTINUOUS
10
78.05
20
-51.85
11
60.05
21
-51.85
0
LINE
8
0
6
CONTINUOUS
10
60.05
20
-51.85
11
60.05
21
-33.85
0
LINE
8
0
6
CONTINUOUS
10
60.05
20
-52.9
11
78.05
21
-52.9
0
LINE
8
0
6
CONTINUOUS
10
78.05
20
-52.9
11
78.05
21
-70.9
0
LINE
8
0
6
CONTINUOUS
10
78.05
20
-70.9
11
60.05
21
-70.9
0
LINE
8
0
6
CONTINUOUS
10
60.05
20
-70.9
11
60.05
21
-52.9
0
LINE
8
0
6
CONTINUOUS
10
60.05
20
-71.95
11
78.05
21
-71.95
0
LINE
8
0
6
CONTINUOUS
10
78.05
20
-71.95
11
78.05
21
-89.95
0
LINE
8
0
6
CONTINUOUS
10
78.05
20
-89.95
11
60.05
21
-89.95
0
LINE
8
0
6
CONTINUOUS
10
60.05
20
-89.95
11
60.05
21
-71.95
0
LINE
8
0
6
CONTINUOUS
10
79.1
20
-33.85
11
97.1
21
-33.85
0
LINE
8
0
6
CONTINUOUS
10
97.1
20
-33.85
11
97.1
21
-51.85
0
LINE
8
0
6
CONTINUOUS
10
97.1
20
-51.85
11
79.1
21
-51.85
0
LINE
8
0
6
CONTINUOUS
10
79.1
20
-51.85
11
79.1
21
-33.85
0
LINE
8
0
6
CONTINUOUS
10
79.1
20
-52.9
11
97.1
21
-52.9
0
LINE
8
0
6
CONTINUOUS
10
97.1
20
-52.9
11
97.1
21
-70.9
0
LINE
8
0
6
CONTINUOUS
10
97.1
20
-70.9
11
79.1
21
-70.9
0
LINE
8
0
6
CONTINUOUS
10
79.1
20
-70.9
11
79.1
21
-52.9
0
LINE
8
0
6
CONTINUOUS
10
79.1
20
-71.95
11
97.1
21
-71.95
0
LINE
8
0
6
CONTINUOUS
10
97.1
20
-71.95
11
97.1
21
-89.95
0
LINE
8
0
6
CONTINUOUS
10
97.1
20
-89.95
11
79.1
21
-89.95
0
LINE
8
0
6
CONTINUOUS
10
79.1
20
-89.95
11
79.1
21
-71.95
0
LINE
8
0
6
CONTINUOUS
10
98.15
20
-33.85
11
116.15
21
-33.85
0
LINE
8
0
6
CONTINUOUS
10
116.15
20
-33.85
11
116.15
21
-51.85
0
LINE
8
0
6
CONTINUOUS
10
116.15
20
-51.85
11
98.15
21
-51.85
0
LINE
8
0
6
CONTINUOUS
10
98.15
20
-51.85
11
98.15
21
-33.85
0
LINE
8
0
6
CONTINUOUS
10
98.15
20
-52.9
11
116.15
21
-52.9
0
LINE
8
0
6
CONTINUOUS
10
116.15
20
-52.9
11
116.15
21
-70.9
0
LINE
8
0
6
CONTINUOUS
10
116.15
20
-70.9
11
98.15
21
-70.9
0
LINE
8
0
6
CONTINUOUS
10
98.15
20
-70.9
11
98.15
21
-52.9
0
LINE
8
0
6
CONTINUOUS
10
98.15
20
-71.95
11
116.15
21
-71.95
0
LINE
8
0
6
CONTINUOUS
10
116.15
20
-71.95
11
116.15
21
-89.95
0
LINE
8
0
6
CONTINUOUS
10
116.15
20
-89.95
11
98.15
21
-89.95
0
LINE
8
0
6
CONTINUOUS
10
98.15
20
-89.95
11
98.15
21
-71.95
0
LINE
8
0
6
CONTINUOUS
10
117.2
20
-33.85
11
135.2
21
-33.85
0
LINE
8
0
6
CONTINUOUS
10
135.2
20
-33.85
11
135.2
21
-51.85
0
LINE
8
0
6
CONTINUOUS
10
135.2
20
-51.85
11
117.2
21
-51.85
0
LINE
8
0
6
CONTINUOUS
10
117.2
20
-51.85
11
117.2
21
-33.85
0
LINE
8
0
6
CONTINUOUS
10
117.2
20
-52.9
11
135.2
21
-52.9
0
LINE
8
0
6
CONTINUOUS
10
135.2
20
-52.9
11
135.2
21
-70.9
0
LINE
8
0
6
CONTINUOUS
10
135.2
20
-70.9
11
117.2
21
-70.9
0
LINE
8
0
6
CONTINUOUS
10
117.2
20
-70.9
11
117.2
21
-52.9
0
LINE
8
0
6
CONTINUOUS
10
117.2
20
-71.95
11
135.2
21
-71.95
0
LINE
8
0
6
CONTINUOUS
10
135.2
20
-71.95
11
135.2
21
-89.95
0
LINE
8
0
6
CONTINUOUS
10
135.2
20
-89.95
11
117.2
21
-89.95
0
LINE
8
0
6
CONTINUOUS
10
117.2
20
-89.95
11
117.2
21
-71.95
0
LINE
8
0
6
CONTINUOUS
10
136.25
20
-33.85
11
154.25
21
-33.85
0
LINE
8
0
6
CONTINUOUS
10
154.25
20
-33.85
11
154.25
21
-51.85
0
LINE
8
0
6
CONTINUOUS
10
154.25
20
-51.85
11
136.25
21
-51.85
0
LINE
8
0
6
CONTINUOUS
10
136.25
20
-51.85
11
136.25
21
-33.85
0
LINE
8
0
6
CONTINUOUS
10
136.25
20
-52.9
11
154.25
21
-52.9
0
LINE
8
0
6
CONTINUOUS
10
154.25
20
-52.9
11
154.25
21
-70.9
0
LINE
8
0
6
CONTINUOUS
10
154.25
20
-70.9
11
136.25
21
-70.9
0
LINE
8
0
6
CONTINUOUS
10
136.25
20
-70.9
11
136.25
21
-52.9
0
LINE
8
0
6
CONTINUOUS
10
136.25
20
-71.95
11
154.25
21
-71.95
0
LINE
8
0
6
CONTINUOUS
10
154.25
20
-71.95
11
154.25
21
-89.95
0
LINE
8
0
6
CONTINUOUS
10
154.25
20
-89.95
11
136.25
21
-89.95
0
LINE
8
0
6
CONTINUOUS
10
136.25
20
-89.95
11
136.25
21
-71.95
0
LINE
8
0
6
CONTINUOUS
10
155.3
20
-33.85
11
173.3
21
-33.85
0
LINE
8
0
6
CONTINUOUS
10
173.3
20
-33.85
11
173.3
21
-51.85
0
LINE
8
0
6
CONTINUOUS
10
173.3
20
-51.85
11
155.3
21
-51.85
0
LINE
8
0
6
CONTINUOUS
10
155.3
20
-51.85
11
155.3
21
-33.85
0
LINE
8
0
6
CONTINUOUS
10
155.3
20
-52.9
11
173.3
21
-52.9
0
LINE
8
0
6
CONTINUOUS
10
173.3
20
-52.9
11
173.3
21
-70.9
0
LINE
8
0
6
CONTINUOUS
10
173.3
20
-70.9
11
155.3
21
-70.9
0
LINE
8
0
6
CONTINUOUS
10
155.3
20
-70.9
11
155.3
21
-52.9
0
LINE
8
0
6
CONTINUOUS
10
155.3
20
-71.95
11
173.3
21
-71.95
0
LINE
8
0
6
CONTINUOUS
10
173.3
20
-71.95
11
173.3
21
-89.95
0
LINE
8
0
6
CONTINUOUS
10
173.3
20
-89.95
11
155.3
21
-89.95
0
LINE
8
0
6
CONTINUOUS
10
155.3
20
-89.95
11
155.3
21
-71.95
0
LINE
8
0
6
CONTINUOUS
10
174.35
20
-33.85
11
192.35
21
-33.85
0
LINE
8
0
6
CONTINUOUS
10
192.35
20
-33.85
11
192.35
21
-51.85
0
LINE
8
0
6
CONTINUOUS
10
192.35
20
-51.85
11
174.35
21
-51.85
0
LINE
8
0
6
CONTINUOUS
10
174.35
20
-51.85
11
174.35
21
-33.85
0
LINE
8
0
6
CONTINUOUS
10
174.35
20
-52.9
11
192.35
21
-52.9
0
LINE
8
0
6
CONTINUOUS
10
192.35
20
-52.9
11
192.35
21
-70.9
0
LINE
8
0
6
CONTINUOUS
10
192.35
20
-70.9
11
174.35
21
-70.9
0
LINE
8
0
6
CONTINUOUS
10
174.35
20
-70.9
11
174.35
21
-52.9
0
LINE
8
0
6
CONTINUOUS
10
174.35
20
-71.95
11
192.35
21
-71.95
0
LINE
8
0
6
CONTINUOUS
10
192.35
20
-71.95
11
192.35
21
-89.95
0
LINE
8
0
6
CONTINUOUS
10
192.35
20
-89.95
11
174.35
21
-89.95
0
LINE
8
0
6
CONTINUOUS
10
174.35
20
-89.95
11
174.35
21
-71.95
0
LINE
8
0
6
CONTINUOUS
10
193.4
20
-33.85
11
211.4
21
-33.85
0
LINE
8
0
6
CONTINUOUS
10
211.4
20
-33.85
11
211.4
21
-51.85
0
LINE
8
0
6
CONTINUOUS
10
211.4
20
-51.85
11
193.4
21
-51.85
0
LINE
8
0
6
CONTINUOUS
10
193.4
20
-51.85
11
193.4
21
-33.85
0
LINE
8
0
6
CONTINUOUS
10
193.4
20
-52.9
11
211.4
21
-52.9
0
LINE
8
0
6
CONTINUOUS
10
211.4
20
-52.9
11
211.4
21
-70.9
0
LINE
8
0
6
CONTINUOUS
10
211.4
20
-70.9
11
193.4
21
-70.9
0
LINE
8
0
6
CONTINUOUS
10
193.4
20
-70.9
11
193.4
21
-52.9
0
LINE
8
0
6
CONTINUOUS
10
193.4
20
-71.95
11
211.4
21
-71.95
0
LINE
8
0
6
CONTINUOUS
10
211.4
20
-71.95
11
211.4
21
-89.95
0
LINE
8
0
6
CONTINUOUS
10
211.4
20
-89.95
11
193.4
21
-89.95
0
LINE
8
0
6
CONTINUOUS
10
193.4
20
-89.95
11
193.4
21
-71.95
0
LINE
8
0
6
CONTINUOUS
10
212.45
20
-33.85
11
230.45
21
-33.85
0
LINE
8
0
6
CONTINUOUS
10
230.45
20
-33.85
11
230.45
21
-51.85
0
LINE
8
0
6
CONTINUOUS
10
230.45
20
-51.85
11
212.45
21
-51.85
0
LINE
8
0
6
CONTINUOUS
10
212.45
20
-51.85
11
212.45
21
-33.85
0
LINE
8
0
6
CONTINUOUS
10
212.45
20
-52.9
11
230.45
21
-52.9
0
LINE
8
0
6
CONTINUOUS
10
230.45
20
-52.9
11
230.45
21
-70.9
0
LINE
8
0
6
CONTINUOUS
10
230.45
20
-70.9
11
212.45
21
-70.9
0
LINE
8
0
6
CONTINUOUS
10
212.45
20
-70.9
11
212.45
21
-52.9
0
LINE
8
0
6
CONTINUOUS
10
212.45
20
-71.95
11
230.45
21
-71.95
0
LINE
8
0
6
CONTINUOUS
10
230.45
20
-71.95
11
230.45
21
-89.95
0
LINE
8
0
6
CONTINUOUS
10
230.45
20
-89.95
11
212.45
21
-89.95
0
LINE
8
0
6
CONTINUOUS
10
212.45
20
-89.95
11
212.45
21
-71.95
0
LINE
8
0
6
CONTINUOUS
10
231.5
20
-33.85
11
249.5
21
-33.85
0
LINE
8
0
6
CONTINUOUS
10
249.5
20
-33.85
11
249.5
21
-51.85
0
LINE
8
0
6
CONTINUOUS
10
249.5
20
-51.85
11
231.5
21
-51.85
0
LINE
8
0
6
CONTINUOUS
10
231.5
20
-51.85
11
231.5
21
-33.85
0
LINE
8
0
6
CONTINUOUS
10
231.5
20
-52.9
11
249.5
21
-52.9
0
LINE
8
0
6
CONTINUOUS
10
249.5
20
-52.9
11
249.5
21
-70.9
0
LINE
8
0
6
CONTINUOUS
10
249.5
20
-70.9
11
231.5
21
-70.9
0
LINE
8
0
6
CONTINUOUS
10
231.5
20
-70.9
11
231.5
21
-52.9
0
LINE
8
0
6
CONTINUOUS
10
231.5
20
-71.95
11
249.5
21
-71.95
0
LINE
8
0
6
CONTINUOUS
10
249.5
20
-71.95
11
249.5
21
-89.95
0
LINE
8
0
6
CONTINUOUS
10
249.5
20
-89.95
11
231.5
21
-89.95
0
LINE
8
0
6
CONTINUOUS
10
231.5
20
-89.95
11
231.5
21
-71.95
0
LINE
8
0
6
CONTINUOUS
10
250.55
20
-33.85
11
268.55
21
-33.85
0
LINE
8
0
6
CONTINUOUS
10
268.55
20
-33.85
11
268.55
21
-51.85
0
LINE
8
0
6
CONTINUOUS
10
268.55
20
-51.85
11
250.55
21
-51.85
0
LINE
8
0
6
CONTINUOUS
10
250.55
20
-51.85
11
250.55
21
-33.85
0
LINE
8
0
6
CONTINUOUS
10
250.55
20
-52.9
11
268.55
21
-52.9
0
LINE
8
0
6
CONTINUOUS
10
268.55
20
-52.9
11
268.55
21
-70.9
0
LINE
8
0
6
CONTINUOUS
10
268.55
20
-70.9
11
250.55
21
-70.9
0
LINE
8
0
6
CONTINUOUS
10
250.55
20
-70.9
11
250.55
21
-52.9
0
LINE
8
0
6
CONTINUOUS
10
250.55
20
-71.95
11
268.55
21
-71.95
0
LINE
8
0
6
CONTINUOUS
10
268.55
20
-71.95
11
268.55
21
-89.95
0
LINE
8
0
6
CONTINUOUS
10
268.55
20
-89.95
11
250.55
21
-89.95
0
LINE
8
0
6
CONTINUOUS
10
250.55
20
-89.95
11
250.55
21
-71.95
0
LINE
8
0
6
CONTINUOUS
10
41
20
-91
11
59
21
-91
0
LINE
8
0
6
CONTINUOUS
10
59
20
-91
11
59
21
-109
0
LINE
8
0
6
CONTINUOUS
10
59
20
-109
11
41
21
-109
0
LINE
8
0
6
CONTINUOUS
10
41
20
-109
11
41
21
-91
0
LINE
8
0
6
CONTINUOUS
10
60.05
20
-91
11
78.05
21
-91
0
LINE
8
0
6
CONTINUOUS
10
78.05
20
-91
11
78.05
21
-109
0
LINE
8
0
6
CONTINUOUS
10
78.05
20
-109
11
60.05
21
-109
0
LINE
8
0
6
CONTINUOUS
10
60.05
20
-109
11
60.05
21
-91
0
LINE
8
0
6
CONTINUOUS
10
79.1
20
-91
11
97.1
21
-91
0
LINE
8
0
6
CONTINUOUS
10
97.1
20
-91
11
97.1
21
-109
0
LINE
8
0
6
CONTINUOUS
10
97.1
20
-109
11
79.1
21
-109
0
LINE
8
0
6
CONTINUOUS
10
79.1
20
-109
11
79.1
21
-91
0
LINE
8
0
6
CONTINUOUS
10
107.675
20
-91
11
125.675
21
-91
0
LINE
8
0
6
CONTINUOUS
10
125.675
20
-91
11
125.675
21
-109
0
LINE
8
0
6
CONTINUOUS
10
125.675
20
-109
11
107.675
21
-109
0
LINE
8
0
6
CONTINUOUS
10
107.675
20
-109
11
107.675
21
-91
0
LINE
8
0
6
CONTINUOUS
10
136.25
20
-91
11
154.25
21
-91
0
LINE
8
0
6
CONTINUOUS
10
154.25
20
-91
11
154.25
21
-109
0
LINE
8
0
6
CONTINUOUS
10
154.25
20
-109
11
136.25
21
-109
0
LINE
8
0
6
CONTINUOUS
10
136.25
20
-109
11
136.25
21
-91
0
LINE
8
0
6
CONTINUOUS
10
164.825
20
-91
11
182.825
21
-91
0
LINE
8
0
6
CONTINUOUS
10
182.825
20
-91
11
182.825
21
-109
0
LINE
8
0
6
CONTINUOUS
10
182.825
20
-109
11
164.825
21
-109
0
LINE
8
0
6
CONTINUOUS
10
164.825
20
-109
11
164.825
21
-91
0
LINE
8
0
6
CONTINUOUS
10
193.4
20
-91
11
211.4
21
-91
0
LINE
8
0
6
CONTINUOUS
10
211.4
20
-91
11
211.4
21
-109
0
LINE
8
0
6
CONTINUOUS
10
211.4
20
-109
11
193.4
21
-109
0
LINE
8
0
6
CONTINUOUS
10
193.4
20
-109
11
193.4
21
-91
0
LINE
8
0
6
CONTINUOUS
10
212.45
20
-91
11
230.45
21
-91
0
LINE
8
0
6
CONTINUOUS
10
230.45
20
-91
11
230.45
21
-109
0
LINE
8
0
6
CONTINUOUS
10
230.45
20
-109
11
212.45
21
-109
0
LINE
8
0
6
CONTINUOUS
10
212.45
20
-109
11
212.45
21
-91
0
LINE
8
0
6
CONTINUOUS
10
231.5
20
-91
11
249.5
21
-91
0
LINE
8
0
6
CONTINUOUS
10
249.5
20
-91
11
249.5
21
-109
0
LINE
8
0
6
CONTINUOUS
10
249.5
20
-109
11
231.5
21
-109
0
LINE
8
0
6
CONTINUOUS
10
231.5
20
-109
11
231.5
21
-91
0
LINE
8
0
6
CONTINUOUS
10
250.55
20
-91
11
268.55
21
-91
0
LINE
8
0
6
CONTINUOUS
10
268.55
20
-91
11
268.55
21
-109
0
LINE
8
0
6
CONTINUOUS
10
268.55
20
-109
11
250.55
21
-109
0
LINE
8
0
6
CONTINUOUS
10
250.55
20
-109
11
250.55
21
-91
0
ENDSEC
0
EOF